<svg width="115" height="28" viewBox="0 0 115 28" fill="none" xmlns="http://www.w3.org/2000/svg">
<path d="M23.2258 27.4947H38.6159C39.1047 27.4947 39.5849 27.3699 40.0083 27.1328C40.4316 26.8957 40.7831 26.5547 41.0274 26.144C41.2717 25.7333 41.4002 25.2675 41.4 24.7934C41.3998 24.3192 41.2709 23.8535 41.0262 23.443L30.6906 6.07833C30.4463 5.66775 30.0949 5.32679 29.6717 5.08973C29.2484 4.85267 28.7683 4.72787 28.2796 4.72787C27.7908 4.72787 27.3107 4.85267 26.8875 5.08973C26.4643 5.32679 26.1128 5.66775 25.8685 6.07833L23.2258 10.5213L18.0587 1.83318C17.8142 1.42263 17.4627 1.08172 17.0393 0.844703C16.616 0.607686 16.1358 0.48291 15.647 0.48291C15.1581 0.48291 14.6779 0.607686 14.2546 0.844703C13.8313 1.08172 13.4797 1.42263 13.2352 1.83318L0.373819 23.443C0.129142 23.8535 0.00021295 24.3192 2.6357e-07 24.7934C-0.000212423 25.2675 0.128298 25.7333 0.372607 26.144C0.616916 26.5547 0.968407 26.8957 1.39173 27.1328C1.81505 27.3699 2.29528 27.4947 2.7841 27.4947H12.4447C16.2724 27.4947 19.0951 25.8638 21.0375 22.6821L25.7531 14.7607L28.2788 10.5213L35.8591 23.2553H25.7531L23.2258 27.4947ZM12.2873 23.251L5.54536 23.2495L15.6515 6.27182L20.694 14.7607L17.3178 20.4345C16.0279 22.4988 14.5625 23.251 12.2873 23.251Z" fill="#00DC82"/>
<path d="M52.8195 27.2408V17.1305C52.8195 14.2373 52.5182 11.3441 52.5182 11.3441C52.5182 11.3441 53.663 13.9829 55.109 16.4628L61.2846 27.2408H66.1346V4.98535H61.5858V15.0957C61.5858 17.9889 61.8871 20.9139 61.8871 20.9139C61.8871 20.9139 60.7423 18.2432 59.3264 15.7634L53.1207 4.98535H48.3008V27.2408H52.8195Z" fill="white"/>
<path d="M80.4658 11.2169V19.9919C80.4658 22.0267 79.1704 23.5528 77.3328 23.5528C75.6157 23.5528 74.4107 22.1538 74.4107 20.2144V11.2169H70.2234V21.2C70.2234 24.8563 72.4526 27.4952 75.8567 27.4952C77.9353 27.4952 79.6223 26.5414 80.4658 25.0153V27.2408H84.6833V11.2169H80.4658Z" fill="white"/>
<path d="M96.9478 18.9109L102.039 11.2169H97.4298L94.6583 15.4454L91.8868 11.2169H87.3079L92.399 18.8791L86.9163 27.2408H91.4048L94.6884 22.3128L97.9419 27.2408H102.4L96.9478 18.9109Z" fill="white"/>
<path d="M106.747 11.2169H103.824V14.9049H106.747V21.4226C106.747 25.1424 109.006 27.2408 112.5 27.2408H115.001V23.521H113.073C111.717 23.521 110.934 22.7897 110.934 21.2318V14.9049H115.001V11.2169H110.934V6.47965H106.747V11.2169Z" fill="white"/>
</svg>
