<svg width="26" height="27" viewBox="0 0 26 27" fill="none" xmlns="http://www.w3.org/2000/svg">
<path d="M14.5862 22.0313H24.2515C24.5585 22.0313 24.8601 21.9487 25.126 21.7918C25.3918 21.6349 25.6126 21.4092 25.766 21.1375C25.9194 20.8657 26.0001 20.5574 26 20.2437C25.9999 19.9299 25.9189 19.6217 25.7652 19.3501L19.2743 7.85901C19.1209 7.58731 18.9002 7.36168 18.6344 7.20481C18.3686 7.04793 18.067 6.96535 17.7601 6.96535C17.4532 6.96535 17.1517 7.04793 16.8859 7.20481C16.6201 7.36168 16.3994 7.58731 16.2459 7.85901L14.5862 10.7992L11.3412 5.04979C11.1877 4.77811 10.9669 4.55251 10.701 4.39567C10.4351 4.23882 10.1336 4.15625 9.82659 4.15625C9.51961 4.15625 9.21803 4.23882 8.95216 4.39567C8.68629 4.55251 8.46549 4.77811 8.31194 5.04979L0.234765 19.3501C0.0811034 19.6217 0.000133737 19.9299 1.65527e-07 20.2437C-0.000133406 20.5574 0.0805739 20.8657 0.234004 21.1375C0.387435 21.4092 0.608178 21.6349 0.874033 21.7918C1.13989 21.9487 1.44148 22.0313 1.74847 22.0313H7.81554C10.2194 22.0313 11.9921 20.952 13.2119 18.8466L16.1734 13.6045L17.7596 10.7992L22.5202 19.2259H16.1734L14.5862 22.0313ZM7.71663 19.223L3.48259 19.222L9.82941 7.98706L12.9962 13.6045L10.8759 17.3592C10.0658 18.7253 9.14556 19.223 7.71663 19.223Z" fill="#00DC82"/>
</svg>
