
<svg width="19" height="13" viewBox="0 0 19 13" fill="none" xmlns="http://www.w3.org/2000/svg">
<path d="M10.4317 12.5459H17.123C17.3356 12.5459 17.5443 12.4905 17.7284 12.3852C17.9124 12.2798 18.0653 12.1283 18.1715 11.9459C18.2777 11.7634 18.3336 11.5565 18.3335 11.3458C18.3334 11.1352 18.2773 10.9283 18.171 10.7459L13.6772 3.03167C13.571 2.84927 13.4182 2.6978 13.2342 2.59248C13.0502 2.48717 12.8415 2.43172 12.629 2.43172C12.4165 2.43172 12.2077 2.48717 12.0237 2.59248C11.8397 2.6978 11.6869 2.84927 11.5807 3.03167L10.4317 5.00548L8.18512 1.14576C8.07882 0.963369 7.92595 0.81192 7.74189 0.706625C7.55783 0.60133 7.34904 0.545898 7.13652 0.545898C6.92399 0.545898 6.71521 0.60133 6.53115 0.706625C6.34708 0.81192 6.19422 0.963369 6.08792 1.14576L0.496026 10.7459C0.389645 10.9283 0.333589 11.1352 0.333496 11.3458C0.333404 11.5565 0.389278 11.7634 0.495499 11.9459C0.60172 12.1283 0.754543 12.2798 0.938596 12.3852C1.12265 12.4905 1.33144 12.5459 1.54398 12.5459H5.74425C7.40845 12.5459 8.63573 11.8214 9.48022 10.4079L11.5305 6.88881L12.6286 5.00548L15.9244 10.6626H11.5305L10.4317 12.5459ZM5.67578 10.6606L2.74452 10.66L7.13847 3.11763L9.33089 6.88881L7.86297 9.40939C7.30216 10.3265 6.66504 10.6606 5.67578 10.6606Z" fill="url(#paint0_linear_869_12344)"/>
<defs>
<linearGradient id="paint0_linear_869_12344" x1="0.333496" y1="0.545898" x2="18.5999" y2="0.966101" gradientUnits="userSpaceOnUse">
<stop stop-color="#36E4DA"/>
<stop offset="1" stop-color="#407CFF"/>
</linearGradient>
</defs>
</svg>
