<svg width="213" height="64" fill="none" xmlns="http://www.w3.org/2000/svg"><path d="M74.429 21.073h6.254L93.936 42.65V21.073h5.773v30.573H93.5L80.201 30.114v21.532h-5.773V21.073ZM125.513 51.646h-5.379V48.23c-1.225 2.403-3.717 3.756-6.866 3.756-4.986 0-8.224-3.581-8.224-8.736v-13.62h5.38v12.493c0 3.014 1.838 5.11 4.593 5.11 3.018 0 5.117-2.358 5.117-5.59V29.632h5.379v22.014ZM144.235 51.297l-5.161-7.337-5.162 7.337h-5.73l7.961-11.487-7.348-10.526h5.861l4.418 6.334 4.373-6.334h5.905l-7.393 10.526 7.962 11.487h-5.686ZM160.855 22.994v6.637h6.123v4.5h-6.123v10.928a1.383 1.383 0 0 0 1.385 1.385h4.738v5.193h-3.544c-4.811 0-7.959-2.796-7.959-7.684v-9.818h-4.33v-4.503h2.716c1.268 0 2.005-.754 2.005-2v-4.638h4.989ZM180.54 44.722V21.073h5.771V42.91c0 5.897-2.843 8.736-7.654 8.736h-6.718v-5.193h6.868a1.734 1.734 0 0 0 1.733-1.731M189.77 41.381h5.557c.307 3.415 2.582 5.59 6.256 5.59 3.281 0 5.557-1.308 5.557-4.017 0-6.552-16.458-2.01-16.458-13.715.004-5.022 4.335-8.512 10.557-8.512 6.474 0 10.847 3.712 11.114 9.434h-5.527c-.261-2.664-2.351-4.455-5.598-4.455-3.018 0-4.899 1.399-4.899 3.537 0 6.77 16.671 1.708 16.671 13.628 0 5.677-4.68 9.129-11.415 9.129-6.955 0-11.503-4.194-11.809-10.614" fill="#fff"/><path fill-rule="evenodd" clip-rule="evenodd" d="M28.797 14.22c-1.615-2.827-5.652-2.827-7.267 0L3.932 45.03c-1.615 2.826.403 6.36 3.633 6.36h13.738c-1.38-1.228-1.89-3.352-.847-5.175l13.329-23.262-4.988-8.733Z" fill="#80EEC0"/><path d="M39.948 20.978c1.336-2.313 4.677-2.313 6.013 0l14.565 25.208c1.336 2.313-.334 5.204-3.007 5.204H28.39c-2.672 0-4.343-2.891-3.007-5.204l14.565-25.208Z" fill="#00DC82"/></svg>