<svg width="36" height="24" viewBox="0 0 36 24" fill="none" xmlns="http://www.w3.org/2000/svg">
<path d="M19.9944 23.567H33.2433C33.6641 23.5671 34.0775 23.4601 34.4419 23.2569C34.8063 23.0536 35.1089 22.7613 35.3192 22.4093C35.5296 22.0573 35.6402 21.658 35.64 21.2516C35.6398 20.8452 35.5288 20.446 35.3182 20.0942L26.4206 5.21014C26.2103 4.85821 25.9078 4.56596 25.5434 4.36277C25.1791 4.15957 24.7658 4.0526 24.345 4.0526C23.9243 4.0526 23.511 4.15957 23.1466 4.36277C22.7823 4.56596 22.4797 4.85821 22.2694 5.21014L19.9944 9.01843L15.5462 1.57144C15.3357 1.21954 15.0331 0.927328 14.6686 0.724171C14.3042 0.521014 13.8908 0.414062 13.47 0.414062C13.0492 0.414062 12.6358 0.521014 12.2714 0.724171C11.9069 0.927328 11.6042 1.21954 11.3938 1.57144L0.321809 20.0942C0.111174 20.446 0.000183322 20.8452 2.26899e-07 21.2516C-0.000182869 21.658 0.110448 22.0573 0.320766 22.4093C0.531084 22.7613 0.833672 23.0536 1.1981 23.2569C1.56252 23.4601 1.97593 23.5671 2.39675 23.567H10.7133C14.0084 23.567 16.4384 22.1691 18.1105 19.442L22.17 12.6521L24.3444 9.01843L30.8701 19.9333H22.17L19.9944 23.567ZM10.5777 19.9296L4.77383 19.9283L13.4739 5.37599L17.8148 12.6521L14.9084 17.5154C13.7979 19.2849 12.5365 19.9296 10.5777 19.9296Z" fill="white"/>
</svg>
