<svg width="58" height="20" viewBox="0 0 58 20" fill="none" xmlns="http://www.w3.org/2000/svg">
<path d="M4.46986 19.3491V10.6831C4.46986 8.20316 4.21052 5.72327 4.21052 5.72327C4.21052 5.72327 5.196 7.98515 6.4408 10.1108L11.7572 19.3491H15.9325V0.272949H12.0165V8.93895C12.0165 11.4188 12.2758 13.926 12.2758 13.926C12.2758 13.926 11.2904 11.6369 10.0715 9.51123L4.72919 0.272949H0.579834V19.3491H4.46986Z" fill="white"/>
<path d="M28.2697 5.61426V13.1357C28.2697 14.8798 27.1546 16.1879 25.5726 16.1879C24.0944 16.1879 23.0571 14.9888 23.0571 13.3265V5.61426H19.4523V14.1713C19.4523 17.3052 21.3714 19.5671 24.3019 19.5671C26.0913 19.5671 27.5436 18.7495 28.2697 17.4414V19.3491H31.9004V5.61426H28.2697Z" fill="white"/>
<path d="M42.4586 12.2091L46.8413 5.61426H42.8735L40.4876 9.23872L38.1018 5.61426H34.1599L38.5426 12.1819L33.8227 19.3491H37.6868L40.5136 15.1251L43.3144 19.3491H47.1525L42.4586 12.2091Z" fill="white"/>
<path d="M50.8941 5.61426H48.3785V8.77544H50.8941V14.362C50.8941 17.5505 52.8391 19.3491 55.8474 19.3491H57.9998V16.1606H56.3401C55.1731 16.1606 54.4988 15.5338 54.4988 14.1985V8.77544H57.9998V5.61426H54.4988V1.55377H50.8941V5.61426Z" fill="white"/>
</svg>
